<?xml version="1.0" encoding="UTF-8" standalone="no"?><!-- Generator: Gravit.io --><svg xmlns="http://www.w3.org/2000/svg" xmlns:xlink="http://www.w3.org/1999/xlink" style="isolation:isolate" viewBox="0 0 312 312" width="312pt" height="312pt"><defs><clipPath id="_clipPath_tLQ1oE8sPoa9i3IzjZzifSf67RWrvnr8"><rect width="312" height="312"/></clipPath></defs><g clip-path="url(#_clipPath_tLQ1oE8sPoa9i3IzjZzifSf67RWrvnr8)"><g><path d=" M 238.464 122.475 C 229.668 118.974 220.555 121.55 214.196 129.003 C 207.837 121.555 198.731 118.971 189.928 122.475 C 180.587 126.188 172.105 137.243 175.558 152.76 C 181.163 177.938 211.599 190.929 212.891 191.469 C 213.31 191.645 213.748 191.728 214.193 191.728 C 214.638 191.728 215.078 191.643 215.495 191.469 C 216.788 190.929 247.228 177.939 252.829 152.76 C 256.282 137.243 247.805 126.187 238.463 122.475 L 238.464 122.475 Z  M 246.242 151.291 C 242.007 170.332 219.832 181.964 214.194 184.643 C 208.553 181.964 186.383 170.329 182.145 151.288 C 179.551 139.637 185.653 131.437 192.419 128.746 C 194.03 128.108 195.828 127.727 197.705 127.727 C 202.335 127.727 207.439 130.041 211.296 136.515 C 211.903 137.537 213.002 138.163 214.194 138.163 C 215.385 138.163 216.484 137.535 217.092 136.515 C 222.516 127.414 230.396 126.522 235.968 128.742 C 242.736 131.44 248.838 139.637 246.242 151.291 L 246.242 151.291 Z " fill="rgb(209,25,25)"/><path d=" M 275.023 42.001 L 153.359 42.001 C 144.542 42.001 137.371 49.172 137.371 57.989 L 137.371 66.042 L 33.697 87.887 C 29.518 88.768 25.93 91.221 23.6 94.802 C 21.267 98.38 20.469 102.649 21.349 106.827 L 61.91 299.301 C 62.791 303.48 65.244 307.068 68.823 309.399 C 71.452 311.112 74.452 312 77.519 312 C 78.626 312 79.739 311.885 80.848 311.649 L 199.891 286.562 C 207.495 284.959 212.682 278.165 212.568 270.674 L 275.013 270.674 C 283.829 270.674 291 263.503 291 254.686 L 290.998 57.988 C 291.005 49.171 283.834 42 275.017 42 L 275.023 42.001 Z  M 198.506 279.966 L 79.457 305.053 C 77.051 305.561 74.575 305.104 72.508 303.753 C 70.438 302.406 69.021 300.33 68.513 297.917 L 27.956 105.443 C 26.904 100.459 30.105 95.548 35.092 94.498 L 137.374 72.945 L 137.374 175.438 L 107.67 143.858 C 106.863 142.997 105.664 142.62 104.516 142.87 C 103.362 143.112 102.42 143.936 102.027 145.05 L 85.672 191.386 C 85.251 192.577 85.531 193.903 86.395 194.825 L 120.058 230.617 C 120.703 231.302 121.597 231.677 122.518 231.677 C 122.746 231.677 122.984 231.653 123.212 231.606 C 124.364 231.363 125.308 230.539 125.701 229.426 L 137.371 196.361 L 137.371 254.699 C 137.371 263.516 144.541 270.686 153.358 270.686 L 205.82 270.686 C 205.938 275.051 202.934 279.035 198.505 279.967 L 198.506 279.966 Z  M 135.007 182.771 L 121.176 221.945 L 92.718 191.684 L 106.544 152.509 L 135.007 182.771 Z  M 284.256 254.689 C 284.256 259.786 280.112 263.927 275.018 263.927 L 153.354 263.927 C 148.262 263.927 144.116 259.784 144.116 254.689 L 144.116 57.984 C 144.116 52.888 148.259 48.747 153.354 48.747 L 275.012 48.747 C 280.104 48.747 284.25 52.89 284.25 57.984 L 284.25 254.689 L 284.256 254.689 Z " fill="rgb(0,0,0)"/></g></g></svg>