<?xml version="1.0" encoding="UTF-8" standalone="no"?><!-- Generator: Gravit.io --><svg xmlns="http://www.w3.org/2000/svg" xmlns:xlink="http://www.w3.org/1999/xlink" style="isolation:isolate" viewBox="0 0 300 300" width="300pt" height="300pt"><defs><clipPath id="_clipPath_Gbom8tOs8tVkiaXls9APi6tRSWHtOR25"><rect width="300" height="300"/></clipPath></defs><g clip-path="url(#_clipPath_Gbom8tOs8tVkiaXls9APi6tRSWHtOR25)"><g><path d=" M 297.677 293.001 L 267.06 293.001 L 32.937 292.997 L 24.123 292.997 L 2.323 292.997 C 1.041 292.997 0 294.337 0 295.995 C 0 297.653 1.041 298.994 2.323 298.994 L 297.676 298.994 C 298.959 298.994 300 297.653 300 295.995 C 300.002 294.337 298.961 292.997 297.678 292.997 L 297.677 293.001 Z  M 262.415 293.001 L 170.436 293.001 L 262.415 293.001 Z  M 165.793 292.994 L 132.532 292.996 L 68.518 292.996 L 37.581 292.996 L 165.793 292.994 Z  M 73.167 292.994 L 127.885 292.994 L 73.167 292.994 Z " fill="rgb(0,0,0)"/><g><g><g><path d=" M 99.911 90.557 L 134.463 90.557 C 135.669 90.557 136.473 89.752 136.473 88.547 L 136.473 55.2 C 136.473 53.995 135.669 53.191 134.463 53.191 L 99.911 53.191 C 98.706 53.191 97.901 53.995 97.901 55.2 L 97.901 88.547 C 97.904 89.756 98.706 90.557 99.911 90.557 Z  M 101.92 57.613 L 132.454 57.613 L 132.454 86.942 L 101.92 86.942 L 101.92 57.613 Z " fill="rgb(0,0,0)"/><path d=" M 99.911 153.557 L 134.463 153.557 C 135.669 153.557 136.473 152.752 136.473 151.547 L 136.473 118.2 C 136.473 116.995 135.669 116.191 134.463 116.191 L 99.911 116.191 C 98.706 116.191 97.901 116.995 97.901 118.2 L 97.901 151.547 C 97.904 152.752 98.706 153.557 99.911 153.557 Z  M 101.92 120.21 L 132.454 120.21 L 132.454 149.539 L 101.92 149.539 L 101.92 120.21 Z " fill="rgb(0,0,0)"/></g><g><path d=" M 165.537 90.557 L 200.089 90.557 C 201.294 90.557 202.098 89.752 202.098 88.547 L 202.098 55.2 C 202.098 53.995 201.294 53.191 200.089 53.191 L 165.537 53.191 C 164.331 53.191 163.527 53.995 163.527 55.2 L 163.527 88.547 C 163.53 89.756 164.331 90.557 165.537 90.557 Z  M 167.546 57.613 L 198.08 57.613 L 198.08 86.942 L 167.546 86.942 L 167.546 57.613 Z " fill="rgb(0,0,0)"/><path d=" M 165.537 153.557 L 200.089 153.557 C 201.294 153.557 202.098 152.752 202.098 151.547 L 202.098 118.2 C 202.098 116.995 201.294 116.191 200.089 116.191 L 165.537 116.191 C 164.331 116.191 163.527 116.995 163.527 118.2 L 163.527 151.547 C 163.53 152.752 164.331 153.557 165.537 153.557 Z  M 167.546 120.21 L 198.08 120.21 L 198.08 149.539 L 167.546 149.539 L 167.546 120.21 Z " fill="rgb(209,25,25)"/></g></g><path d=" M 238.801 292.364 L 238.801 45.166 L 238.801 3.407 C 238.801 1.968 237.84 1.006 236.4 1.006 L 63.6 1.006 C 62.16 1.006 61.199 1.968 61.199 3.407 L 61.199 292.367 L 238.801 292.364 Z  M 177.355 292.368 L 122.635 292.368 L 122.635 231.889 C 122.635 217.01 135.114 204.527 149.997 204.527 C 164.876 204.527 177.358 217.006 177.358 231.889 L 177.355 292.368 Z  M 65.995 5.808 L 233.995 5.808 L 233.995 292.368 L 182.155 292.368 L 182.155 231.889 C 182.155 214.13 167.754 199.729 149.995 199.729 C 132.236 199.729 117.835 214.13 117.835 231.889 L 117.835 292.368 L 65.995 292.368 L 65.995 5.808 Z " fill="rgb(0,0,0)"/></g></g></g></svg>