<?xml version="1.0" encoding="UTF-8" standalone="no"?><!-- Generator: Gravit.io --><svg xmlns="http://www.w3.org/2000/svg" xmlns:xlink="http://www.w3.org/1999/xlink" style="isolation:isolate" viewBox="102.005 158.247 495.985 243.499" width="495.985pt" height="243.499pt"><path d=" M 134.27 184.77 L 211.391 200.723 L 212.184 168.493 C 212.719 161.669 217.996 158.934 224.493 159.009 L 345.113 158.657 C 349.093 158.669 352.058 159.524 354.57 161.72 C 356.347 160.059 359.55 158.61 363.433 158.602 L 484.553 158.247 C 489.667 158.239 494.6 161.165 495.248 166.727 L 498.033 200.571 L 575.881 180.708 C 588.893 178.544 598.35 190.353 597.979 201.575 L 584.936 401.745 L 126.756 401.745 L 102.541 210.225 C 97.573 174.971 128.635 184.76 134.268 184.76 L 134.27 184.77 Z  M 357.38 170.27 L 355.138 269.02 C 357.638 267.551 361.11 266.661 365.888 266.68 L 491.108 267.137 L 491.471 206.418 L 488.256 167.32 C 487.944 165.562 485.748 165.344 484.315 165.238 L 363.585 165.594 C 357.624 165.738 357.593 168.152 357.386 170.269 L 357.38 170.27 Z  M 349.853 270.6 L 352.134 170.12 C 351.974 168.565 350.857 165.643 345.189 165.647 L 224.409 166.003 C 221.678 166.003 219.37 166.175 219.159 169.21 C 218.358 202.058 217.803 234.12 217.604 267.112 L 336.984 266.674 C 343.3 266.647 347.316 268.221 349.855 270.596 L 349.853 270.6 Z  M 212.363 267.135 L 212.718 208.143 L 151.14 195.405 C 163.488 209.296 166.675 239.143 167.074 273.03 C 175.785 267.144 193.863 267.21 212.363 267.136 L 212.363 267.135 Z  M 496.703 208.155 L 496.347 267.167 C 511.964 267.312 528.023 267.558 536.058 273.218 C 536.476 237.765 539.949 206.679 553.785 193.57 L 496.703 208.155 Z  M 489.453 272.374 L 365.883 271.925 C 351.742 271.87 354.262 282.409 354.262 288.374 L 354.262 329.956 C 354.262 333.8 357.449 336.866 361.293 336.866 L 530.333 336.866 C 534.692 336.866 536.794 334.003 536.915 332.374 C 536.559 315.546 536.02 298.081 536.016 281.331 C 534.548 278.28 531.845 276.323 527.677 275.054 C 519.946 272.706 507.497 272.433 489.458 272.37 L 489.453 272.374 Z  M 541.297 279.941 C 541.172 292.086 542.601 325.976 542.363 332.437 C 542.84 354.98 542.871 376.718 540.683 394.722 L 578.371 394.722 C 579.629 375.456 591.394 202.522 590.84 198.982 C 587.93 180.615 568.332 188.814 559.028 195.974 C 543.86 207.654 541.141 241.341 541.301 279.943 L 541.297 279.941 Z  M 530.332 342.136 L 361.292 342.136 C 357.296 342.136 353.706 340.225 351.428 337.202 C 349.147 340.233 345.561 342.136 341.565 342.136 L 172.515 342.136 C 170.156 342.136 167.933 341.46 166.054 340.304 C 165.718 360.542 165.843 379.515 167.746 394.726 L 535.386 394.726 C 537.292 379.488 537.397 360.453 537.058 340.132 C 537.058 340.132 533.077 342.136 530.323 342.136 L 530.332 342.136 Z  M 160.752 333.471 C 159.642 329.846 160.228 294.916 160.228 288.373 C 160.228 284.748 160.744 281.733 161.842 279.225 C 161.982 236.002 158.427 199.1 137.666 192.62 C 121.838 189.331 106.42 186.886 109.455 209.233 L 132.908 394.723 L 162.455 394.723 C 160.298 376.996 160.298 355.641 160.748 333.469 L 160.752 333.471 Z  M 336.972 271.924 L 213.402 272.374 C 195.367 272.44 182.918 272.71 175.183 275.057 C 168.425 277.116 165.491 281.003 165.491 288.369 L 165.491 329.951 C 165.491 333.795 168.679 336.862 172.515 336.862 L 341.565 336.862 C 345.409 336.862 348.596 333.791 348.596 329.951 L 348.799 282.83 C 348.779 277.944 347.369 271.877 336.971 271.916 L 336.972 271.924 Z " fill="rgb(0,0,0)"/></svg>