<?xml version="1.0" encoding="UTF-8" standalone="no"?><!-- Generator: Gravit.io --><svg xmlns="http://www.w3.org/2000/svg" xmlns:xlink="http://www.w3.org/1999/xlink" style="isolation:isolate" viewBox="0 0 312 312" width="312pt" height="312pt"><defs><clipPath id="_clipPath_LqZ3qmSNHJJdKo9BNZOarRjR3uuYQ59a"><rect width="312" height="312"/></clipPath></defs><g clip-path="url(#_clipPath_LqZ3qmSNHJJdKo9BNZOarRjR3uuYQ59a)"><g><path d=" M 171.457 93.326 C 171.462 89.93 170.344 86.626 168.275 83.933 C 166.207 81.238 163.308 79.305 160.025 78.432 L 159.997 78.427 L 159.997 60.62 C 159.997 58.396 158.195 56.594 155.971 56.594 C 153.747 56.594 151.946 58.396 151.946 60.62 L 151.946 78.442 C 148.221 79.459 145.015 81.833 142.955 85.096 C 140.894 88.359 140.13 92.277 140.813 96.076 C 141.497 99.874 143.577 103.28 146.647 105.62 C 149.715 107.961 153.549 109.069 157.395 108.723 C 161.239 108.379 164.813 106.606 167.417 103.758 C 170.021 100.907 171.463 97.187 171.458 93.327 L 171.457 93.326 Z  M 148.512 93.326 C 148.5 91.351 149.275 89.453 150.663 88.047 C 152.052 86.645 153.943 85.85 155.918 85.838 C 157.893 85.828 159.791 86.602 161.197 87.991 C 162.6 89.38 163.395 91.27 163.406 93.246 C 163.416 95.221 162.642 97.119 161.253 98.524 C 159.864 99.927 157.974 100.722 155.999 100.732 C 154.023 100.742 152.127 99.966 150.724 98.577 C 149.321 97.188 148.524 95.3 148.512 93.326 L 148.512 93.326 Z " fill="rgb(209,25,25)"/><path d=" M 292.873 287.846 L 208.331 287.846 L 208.331 207.335 L 292.873 207.335 C 295.081 207.301 296.864 205.518 296.898 203.309 C 296.893 201.089 295.093 199.29 292.873 199.284 L 208.331 199.284 L 208.331 191.233 C 208.321 189.086 207.457 187.032 205.933 185.524 C 204.408 184.014 202.346 183.17 200.199 183.181 L 159.995 183.181 L 159.995 164.422 L 160.023 164.422 C 184.965 163.015 207.346 148.652 219.017 126.565 C 230.69 104.479 229.943 77.896 217.054 56.495 C 204.166 35.098 181.014 22.008 156.036 22 C 131.057 21.992 107.895 35.061 94.992 56.45 C 82.087 77.839 81.323 104.424 92.978 126.521 C 104.634 148.618 127.008 162.994 151.947 164.418 L 151.947 183.181 L 111.719 183.181 C 109.586 183.189 107.539 184.037 106.031 185.546 C 104.523 187.054 103.674 189.098 103.668 191.233 L 103.668 199.284 L 19.126 199.284 C 18.056 199.274 17.024 199.695 16.268 200.451 C 15.511 201.209 15.09 202.238 15.1 203.309 C 15.106 205.529 16.906 207.329 19.126 207.335 L 103.668 207.335 L 103.668 287.846 L 19.126 287.846 C 18.056 287.836 17.024 288.256 16.268 289.014 C 15.511 289.77 15.09 290.802 15.1 291.871 C 15.106 294.093 16.906 295.89 19.126 295.898 L 103.668 295.898 L 103.668 303.868 C 103.655 306.014 104.499 308.076 106.009 309.602 C 107.52 311.126 109.571 311.99 111.719 312 L 200.2 312 C 202.359 312.006 204.432 311.151 205.958 309.624 C 207.485 308.098 208.337 306.027 208.332 303.868 L 208.332 295.898 L 292.874 295.898 C 295.082 295.862 296.865 294.081 296.9 291.871 C 296.893 289.651 295.094 287.854 292.874 287.846 L 292.873 287.846 Z  M 92.955 97.354 L 101.119 97.354 C 103.344 97.354 105.145 95.552 105.145 93.328 C 105.145 91.104 103.343 89.302 101.119 89.302 L 92.955 89.302 L 92.955 89.3 C 93.967 73.996 100.509 59.582 111.362 48.745 C 122.215 37.908 136.639 31.388 151.944 30.401 L 151.944 38.478 C 151.944 40.702 153.745 42.504 155.969 42.504 C 158.193 42.504 159.994 40.702 159.994 38.478 L 159.994 30.397 C 175.298 31.389 189.717 37.912 200.565 48.749 C 211.414 59.586 217.952 73.999 218.959 89.301 L 218.959 89.303 L 210.819 89.303 C 208.595 89.303 206.793 91.104 206.793 93.328 C 206.793 95.551 208.595 97.354 210.819 97.354 L 218.959 97.354 C 217.974 112.661 211.448 127.084 200.601 137.931 C 189.756 148.776 175.33 155.303 160.023 156.287 L 159.994 156.29 L 159.994 148.178 C 159.994 145.954 158.194 144.152 155.969 144.152 C 153.745 144.152 151.944 145.954 151.944 148.178 L 151.944 156.284 C 136.628 155.309 122.193 148.789 111.335 137.943 C 100.48 127.096 93.946 112.666 92.955 97.353 L 92.955 97.354 Z  M 200.282 199.281 L 200.282 303.87 L 200.202 303.951 L 111.72 303.87 L 111.72 191.233 L 200.284 191.233 L 200.282 199.281 Z " fill="rgb(0,0,0)"/></g></g></svg>