<?xml version="1.0" encoding="UTF-8" standalone="no"?><!-- Generator: Gravit.io --><svg xmlns="http://www.w3.org/2000/svg" xmlns:xlink="http://www.w3.org/1999/xlink" style="isolation:isolate" viewBox="0 0 500 500" width="500pt" height="500pt"><defs><clipPath id="_clipPath_YupmJjHVjP1s0ZnfZH0pz1CEBK1aHytt"><rect width="500" height="500"/></clipPath></defs><g clip-path="url(#_clipPath_YupmJjHVjP1s0ZnfZH0pz1CEBK1aHytt)"><g><path d=" M 409.859 192.882 L 89.897 192.878 L 89.897 202.989 L 108.915 202.989 C 109.205 212.237 113.616 220.385 120.363 225.824 L 120.363 494.945 C 120.363 497.739 122.624 500 125.417 500 L 153.575 500 C 156.368 500 158.63 497.739 158.63 494.945 L 158.63 418.419 L 336.8 418.419 L 336.8 494.945 C 336.8 497.739 339.061 500 341.854 500 L 370.011 500 C 372.805 500 375.066 497.739 375.066 494.945 L 375.075 225.854 C 381.844 220.414 386.274 212.253 386.565 202.98 L 409.857 202.98 L 409.859 192.882 Z  M 148.526 489.893 L 130.479 489.893 L 130.479 231.219 C 133.357 232.115 136.356 232.735 139.526 232.735 C 142.68 232.735 145.662 232.119 148.526 231.234 L 148.526 489.893 Z  M 139.522 222.617 C 128.496 222.617 119.543 213.889 119.03 202.991 L 160.018 202.991 C 159.505 213.889 150.548 222.617 139.522 222.617 Z  M 336.8 408.315 L 158.63 408.315 L 158.63 388.107 L 336.8 388.107 L 336.8 408.315 Z  M 336.8 377.994 L 158.63 377.994 L 158.63 225.865 C 165.4 220.425 169.83 212.264 170.12 202.991 L 325.349 202.991 C 325.64 212.24 330.05 220.387 336.796 225.826 L 336.8 377.994 Z  M 364.96 489.901 L 346.912 489.901 L 346.912 231.227 C 349.791 232.124 352.79 232.744 355.96 232.744 C 359.114 232.744 362.098 232.127 364.96 231.243 L 364.96 489.901 Z  M 355.96 222.626 C 344.934 222.626 335.981 213.897 335.469 203 L 376.455 203 C 375.939 213.897 366.981 222.626 355.96 222.626 Z " fill="rgb(0,0,0)"/><path d=" M 89.897 192.878 L 89.897 147.249 C 89.897 144.455 87.636 142.194 84.843 142.194 L 61.391 142.19 C 54.117 142.19 48.028 147.066 46.025 153.693 L 33.956 153.696 C 25.069 153.696 17.838 160.931 17.838 169.815 L 17.838 192.879 L 5.055 192.879 C 2.261 192.879 0 195.14 0 197.934 C 0 200.726 2.261 202.987 5.055 202.987 L 17.838 202.987 L 17.838 226.051 C 17.838 234.94 25.073 242.167 33.956 242.167 L 46.025 242.167 C 48.026 248.797 54.117 253.67 61.391 253.67 L 84.843 253.67 C 87.636 253.67 89.897 251.409 89.897 248.615 L 89.897 202.989 L 89.897 192.878 Z  M 45.27 232.056 L 33.958 232.056 C 30.644 232.056 27.947 229.364 27.947 226.051 L 27.947 197.979 C 27.947 197.964 27.96 197.948 27.96 197.929 C 27.96 197.913 27.947 197.897 27.947 197.879 L 27.947 169.806 C 27.947 166.493 30.644 163.796 33.958 163.796 L 45.27 163.796 L 45.27 232.056 Z  M 79.79 243.564 L 61.394 243.564 C 58.081 243.564 55.385 240.868 55.385 237.554 L 55.385 158.316 C 55.385 155.002 58.081 152.306 61.394 152.306 L 79.79 152.306 L 79.79 243.564 Z " fill="rgb(209,25,25)"/><path d=" M 410.103 192.926 L 410.103 147.296 C 410.103 144.504 412.364 142.241 415.158 142.241 L 438.609 142.238 C 445.882 142.238 451.973 147.115 453.975 153.74 L 466.044 153.744 C 474.931 153.744 482.163 160.98 482.163 169.862 L 482.163 192.926 L 494.945 192.926 C 497.739 192.926 500 195.189 500 197.981 C 500 200.775 497.739 203.036 494.945 203.036 L 482.163 203.036 L 482.163 226.1 C 482.163 234.988 474.927 242.216 466.044 242.216 L 453.975 242.216 C 451.974 248.846 445.882 253.719 438.609 253.719 L 415.158 253.719 C 412.364 253.719 410.103 251.456 410.103 248.664 L 410.103 203.037 L 410.103 192.926 Z  M 454.73 232.105 L 466.043 232.105 C 469.356 232.105 472.052 229.412 472.052 226.1 L 472.052 198.027 C 472.052 198.013 472.04 197.996 472.04 197.978 C 472.04 197.961 472.052 197.946 472.052 197.926 L 472.052 169.855 C 472.052 166.541 469.356 163.845 466.043 163.845 L 454.73 163.845 L 454.73 232.105 Z  M 420.21 243.611 L 438.606 243.611 C 441.919 243.611 444.615 240.915 444.615 237.603 L 444.615 158.365 C 444.615 155.051 441.919 152.355 438.606 152.355 L 420.21 152.355 L 420.21 243.611 Z " fill="rgb(209,25,25)"/></g></g></svg>