<?xml version="1.0" encoding="UTF-8" standalone="no"?><!-- Generator: Gravit.io --><svg xmlns="http://www.w3.org/2000/svg" xmlns:xlink="http://www.w3.org/1999/xlink" style="isolation:isolate" viewBox="0 0 300 300" width="300pt" height="300pt"><defs><clipPath id="_clipPath_IsyOkTtpdIuY6UVy0Prf8cjtgj4EUiAY"><rect width="300" height="300"/></clipPath></defs><g clip-path="url(#_clipPath_IsyOkTtpdIuY6UVy0Prf8cjtgj4EUiAY)"><g><path d=" M 300 293.572 L 277.507 293.572 L 277.507 203.598 L 228.504 185.991 L 228.504 134.221 L 242.289 144.505 L 246.144 139.363 L 150.001 67.642 L 53.887 139.363 L 57.743 144.505 L 71.527 134.221 L 71.527 186.15 L 22.493 207.134 L 22.493 293.574 L 0 293.574 L 0 300 L 299.997 300 L 300 293.572 Z  M 271.081 207.999 L 271.081 293.572 L 228.504 293.572 L 228.504 192.804 L 271.081 207.999 Z  M 150 75.671 L 222.077 129.431 L 222.077 293.571 L 181.298 293.571 L 181.298 219.181 L 118.7 219.181 L 118.7 293.571 L 77.921 293.571 L 77.921 129.431 L 150 75.671 Z  M 174.871 293.566 L 125.128 293.566 L 125.128 225.604 L 174.871 225.604 L 174.871 293.566 Z  M 28.921 211.367 L 71.498 193.115 L 71.498 293.561 L 28.921 293.561 L 28.921 211.367 Z " fill="rgb(0,0,0)"/><path d=" M 149.999 186.211 C 157.669 186.211 165.026 183.165 170.448 177.74 C 175.872 172.316 178.918 164.96 178.918 157.289 C 178.918 149.621 175.872 142.264 170.448 136.84 C 165.026 131.416 157.669 128.369 149.999 128.369 C 142.328 128.369 134.971 131.416 129.549 136.84 C 124.125 142.264 121.079 149.62 121.079 157.289 C 121.079 164.959 124.125 172.316 129.549 177.74 C 134.971 183.165 142.328 186.211 149.999 186.211 Z  M 149.999 134.796 C 155.965 134.796 161.685 137.167 165.904 141.386 C 170.123 145.602 172.492 151.324 172.492 157.289 C 172.492 163.255 170.122 168.976 165.904 173.195 C 161.685 177.413 155.966 179.784 149.999 179.784 C 144.031 179.784 138.312 177.413 134.093 173.195 C 129.874 168.976 127.506 163.256 127.506 157.289 C 127.521 151.336 129.899 145.631 134.116 141.426 C 138.332 137.221 144.043 134.861 149.999 134.861 L 149.999 134.796 Z " fill="rgb(209,25,25)"/></g></g></svg>