<?xml version="1.0" encoding="UTF-8" standalone="no"?><!-- Generator: Gravit.io --><svg xmlns="http://www.w3.org/2000/svg" xmlns:xlink="http://www.w3.org/1999/xlink" style="isolation:isolate" viewBox="0 0 312 312" width="312pt" height="312pt"><defs><clipPath id="_clipPath_naBTif5Pjfq5pYuzWPwDlxZkNQmuagTo"><rect width="312" height="312"/></clipPath></defs><g clip-path="url(#_clipPath_naBTif5Pjfq5pYuzWPwDlxZkNQmuagTo)"><g><path d=" M 23.551 42.013 C 22.051 42.298 20.974 43.623 21 45.151 L 21 308.859 C 21 310.594 22.406 312 24.141 312 L 287.86 312 C 289.594 312 291 310.594 291 308.859 L 291 45.151 C 291 43.417 289.594 42.013 287.86 42.013 L 24.141 42.013 C 23.943 41.994 23.746 41.994 23.551 42.013 L 23.551 42.013 Z  M 27.279 48.292 L 284.718 48.292 L 284.718 305.72 L 221.929 305.72 L 221.929 89.105 L 221.931 89.103 C 221.957 87.577 220.88 86.252 219.379 85.965 C 219.183 85.946 218.986 85.946 218.79 85.965 L 93.21 85.965 C 91.475 85.965 90.069 87.371 90.069 89.103 L 90.069 305.718 L 27.279 305.718 L 27.279 48.289 L 27.279 48.292 Z  M 130.882 60.849 C 127.414 60.849 124.604 63.661 124.604 67.127 C 124.604 70.594 127.416 73.406 130.882 73.406 C 134.351 73.406 137.161 70.594 137.161 67.127 C 137.161 63.661 134.349 60.849 130.882 60.849 Z  M 155.999 60.849 C 152.53 60.849 149.721 63.661 149.721 67.127 C 149.721 70.594 152.533 73.406 155.999 73.406 C 159.468 73.406 162.278 70.594 162.278 67.127 C 162.278 63.661 159.466 60.849 155.999 60.849 Z  M 181.116 60.849 C 177.647 60.849 174.838 63.661 174.838 67.127 C 174.838 70.594 177.649 73.406 181.116 73.406 C 184.585 73.406 187.394 70.594 187.394 67.127 C 187.394 63.661 184.583 60.849 181.116 60.849 Z  M 96.349 92.241 L 152.86 92.241 L 152.86 305.717 L 96.349 305.717 L 96.349 92.241 Z  M 159.139 92.241 L 215.65 92.241 L 215.65 305.717 L 159.139 305.717 L 159.139 92.241 Z " fill="rgb(0,0,0)"/><g><path d=" M 124.168 143.414 C 123.696 143.516 123.273 143.774 122.968 144.148 L 112.301 156.948 C 111.937 157.39 111.764 157.958 111.82 158.528 C 111.875 159.096 112.155 159.62 112.599 159.983 C 113.041 160.346 113.609 160.519 114.179 160.461 C 114.747 160.404 115.272 160.125 115.634 159.681 L 122.501 151.415 L 122.501 175.414 C 122.494 175.986 122.714 176.537 123.115 176.943 C 123.516 177.349 124.064 177.578 124.635 177.578 C 125.205 177.578 125.752 177.349 126.155 176.943 C 126.555 176.537 126.776 175.986 126.768 175.414 L 126.768 151.415 L 133.634 159.681 L 133.635 159.681 C 133.997 160.125 134.521 160.404 135.09 160.461 C 135.659 160.519 136.228 160.346 136.671 159.983 C 137.113 159.62 137.393 159.096 137.45 158.528 C 137.505 157.958 137.332 157.389 136.969 156.948 L 126.302 144.148 C 125.788 143.516 124.961 143.232 124.168 143.414 L 124.168 143.414 Z " fill="rgb(209,25,25)"/><path d=" M 187.115 143.433 C 186.019 143.57 185.209 144.525 185.252 145.629 L 185.252 169.516 L 178.398 161.265 L 178.398 161.266 C 177.938 160.681 177.207 160.378 176.467 160.467 C 175.671 160.543 174.985 161.058 174.689 161.803 C 174.395 162.547 174.542 163.393 175.071 163.993 L 185.718 176.77 L 185.718 176.771 C 186.122 177.276 186.735 177.57 187.382 177.57 C 188.028 177.57 188.642 177.276 189.046 176.771 L 199.693 163.995 L 199.693 163.993 C 200.059 163.554 200.235 162.985 200.18 162.414 C 200.127 161.843 199.846 161.318 199.403 160.954 C 198.959 160.591 198.389 160.42 197.818 160.478 C 197.248 160.537 196.725 160.821 196.366 161.266 L 189.511 169.518 L 189.511 145.629 C 189.536 145.003 189.284 144.398 188.822 143.975 C 188.361 143.553 187.736 143.354 187.115 143.433 L 187.115 143.433 Z " fill="rgb(209,25,25)"/></g></g></g></svg>