<?xml version="1.0" encoding="UTF-8" standalone="no"?><!-- Generator: Gravit.io --><svg xmlns="http://www.w3.org/2000/svg" xmlns:xlink="http://www.w3.org/1999/xlink" style="isolation:isolate" viewBox="0 0 300 300" width="300pt" height="300pt"><defs><clipPath id="_clipPath_v55koLyeQpy8EKGXmaRjx1Dv328zHTB5"><rect width="300" height="300"/></clipPath></defs><g clip-path="url(#_clipPath_v55koLyeQpy8EKGXmaRjx1Dv328zHTB5)"><g><path d=" M 266.011 294.705 L 266.011 74.187 C 266.011 72.915 264.98 71.883 263.708 71.883 L 170.255 71.886 L 170.255 2.303 C 170.255 1.031 169.224 0 167.953 0 L 36.291 0 C 35.019 0 33.988 1.031 33.988 2.303 L 33.988 294.702 L 266.011 294.705 Z  M 261.408 76.49 L 261.408 294.705 L 170.253 294.705 L 170.253 76.49 L 261.408 76.49 L 261.408 76.49 Z  M 38.591 4.603 L 165.652 4.603 L 165.652 294.7 L 132.689 294.702 L 132.689 216.198 C 132.689 214.925 131.658 213.895 130.386 213.895 L 71.552 213.895 C 70.281 213.895 69.249 214.925 69.249 216.198 L 69.249 294.702 L 38.59 294.702 L 38.591 4.603 L 38.591 4.603 Z  M 73.856 294.7 L 73.856 218.5 L 128.083 218.5 L 128.083 294.7 L 73.856 294.7 L 73.856 294.7 Z " fill="rgb(0,0,0)"/><path d=" M 59.213 57.249 L 145.033 57.249 C 146.305 57.249 147.336 56.218 147.336 54.946 L 147.336 27.811 C 147.336 26.539 146.305 25.508 145.033 25.508 L 59.213 25.508 C 57.941 25.508 56.91 26.539 56.91 27.811 L 56.91 54.946 C 56.91 56.218 57.941 57.249 59.213 57.249 Z  M 61.516 30.114 L 142.729 30.114 L 142.729 52.643 L 61.516 52.643 L 61.516 30.114 L 61.516 30.114 Z " fill="rgb(0,0,0)"/><path d=" M 59.213 122.572 L 145.033 122.572 C 146.305 122.572 147.336 121.541 147.336 120.269 L 147.336 93.136 C 147.336 91.865 146.305 90.834 145.033 90.834 L 59.213 90.834 C 57.941 90.834 56.91 91.865 56.91 93.136 L 56.91 120.269 C 56.91 121.541 57.941 122.572 59.213 122.572 Z  M 61.516 95.437 L 142.729 95.437 L 142.729 117.966 L 61.516 117.966 L 61.516 95.437 L 61.516 95.437 Z " fill="rgb(0,0,0)"/><path d=" M 145.028 187.896 C 146.299 187.896 147.331 186.866 147.331 185.593 L 147.329 158.46 C 147.329 157.187 146.297 156.157 145.026 156.157 L 59.211 156.157 C 57.939 156.157 56.908 157.187 56.908 158.46 L 56.908 185.593 C 56.908 186.866 57.939 187.896 59.211 187.896 L 145.028 187.896 L 145.028 187.896 Z  M 61.511 160.761 L 142.724 160.761 L 142.724 183.29 L 61.511 183.29 L 61.511 160.761 L 61.511 160.761 Z " fill="rgb(0,0,0)"/><path d=" M 192.804 110.787 L 238.861 110.787 C 240.133 110.787 241.164 109.756 241.164 108.484 C 241.164 107.213 240.133 106.182 238.861 106.182 L 192.804 106.182 C 191.533 106.182 190.501 107.213 190.501 108.484 C 190.501 109.756 191.533 110.787 192.804 110.787 L 192.804 110.787 L 192.804 110.787 Z " fill="rgb(209,25,25)"/><path d=" M 192.804 149.344 L 238.861 149.344 C 240.133 149.344 241.164 148.313 241.164 147.041 C 241.164 145.77 240.133 144.739 238.861 144.739 L 192.804 144.739 C 191.533 144.739 190.501 145.77 190.501 147.041 C 190.501 148.313 191.533 149.344 192.804 149.344 L 192.804 149.344 L 192.804 149.344 Z " fill="rgb(209,25,25)"/><path d=" M 192.804 187.896 L 238.861 187.896 C 240.133 187.896 241.164 186.866 241.164 185.593 C 241.164 184.32 240.133 183.29 238.861 183.29 L 192.804 183.29 C 191.533 183.29 190.501 184.32 190.501 185.593 C 190.501 186.864 191.533 187.896 192.804 187.896 L 192.804 187.896 L 192.804 187.896 Z " fill="rgb(209,25,25)"/><path d=" M 116.567 247.645 C 115.296 247.645 114.264 248.674 114.264 249.948 L 114.264 258.098 C 114.264 259.371 115.296 260.401 116.567 260.401 C 117.839 260.401 118.87 259.371 118.87 258.098 L 118.87 249.948 C 118.87 248.674 117.839 247.645 116.567 247.645 Z " fill="rgb(0,0,0)"/><path d=" M 297.336 294.394 L 266.79 294.394 L 33.209 294.391 L 24.414 294.391 L 2.665 294.391 C 1.385 294.391 0.347 295.645 0.347 297.196 C 0.347 298.747 1.385 300 2.665 300 L 297.335 300 C 298.614 300 299.653 298.747 299.653 297.196 C 299.655 295.645 298.617 294.391 297.337 294.391 L 297.336 294.394 Z  M 262.156 294.394 L 170.389 294.394 L 262.156 294.394 Z  M 165.756 294.388 L 132.573 294.391 L 68.707 294.391 L 37.842 294.391 L 165.756 294.388 Z  M 73.345 294.388 L 127.936 294.388 L 73.345 294.388 Z " fill="rgb(0,0,0)"/></g></g></svg>