<?xml version="1.0" encoding="UTF-8" standalone="no"?><!-- Generator: Gravit.io --><svg xmlns="http://www.w3.org/2000/svg" xmlns:xlink="http://www.w3.org/1999/xlink" style="isolation:isolate" viewBox="0 0 312 312" width="312pt" height="312pt"><defs><clipPath id="_clipPath_pXPbIFKxPV0QCQI1kiJQ5QKxQOGEwmQf"><rect width="312" height="312"/></clipPath></defs><g clip-path="url(#_clipPath_pXPbIFKxPV0QCQI1kiJQ5QKxQOGEwmQf)"><g><path d=" M 64.229 189.483 C 59.365 187.711 54.39 186.783 49.851 186.783 C 41.774 186.783 36.106 189.641 34.297 194.63 C 31.419 202.563 40.066 212.726 53.976 217.771 C 58.84 219.533 63.816 220.461 68.354 220.461 C 76.435 220.461 82.099 217.604 83.908 212.615 C 86.781 204.684 78.139 194.521 64.229 189.484 L 64.229 189.483 Z  M 78.684 210.725 C 77.749 213.31 73.793 214.916 68.354 214.916 C 64.455 214.916 60.136 214.095 55.867 212.542 C 44.331 208.36 37.989 200.748 39.522 196.523 C 40.457 193.939 44.413 192.341 49.851 192.341 C 53.755 192.341 58.074 193.155 62.339 194.708 C 73.875 198.888 80.214 206.502 78.684 210.725 L 78.684 210.725 Z " fill="rgb(209,25,25)"/><path d=" M 312 157.616 C 312 143.334 296.799 143.334 290.3 143.334 C 282.702 143.334 277.485 147.471 274.363 151.099 C 270.256 137.25 262.748 117.61 250.251 102.615 C 228.77 76.836 207.151 75.807 156.003 75.807 C 104.851 75.807 83.231 76.833 61.749 102.615 C 49.255 117.61 41.746 137.25 37.637 151.099 C 34.51 147.471 29.3 143.334 21.7 143.334 C 15.208 143.334 0 143.334 0 157.616 C 0 169.1 11.73 170.983 30.114 171.238 C 23.873 180.022 21.886 191.77 21.793 192.357 C 21.599 193.531 17.2 221.15 21.72 240.872 C 21.439 243.49 20.655 254.746 25.92 265.051 L 25.92 300.977 C 25.92 307.051 30.864 312 36.943 312 L 65.584 312 C 71.661 312 76.612 307.052 76.612 300.977 L 76.612 282.873 C 84.39 282.663 89.783 282.308 95.684 281.909 C 107.077 281.154 119.993 280.29 155.998 280.29 C 192.005 280.29 204.92 281.152 216.313 281.909 C 222.214 282.308 227.607 282.661 235.385 282.873 L 235.385 300.977 C 235.385 307.051 240.331 312 246.408 312 L 275.051 312 C 281.128 312 286.074 307.052 286.074 300.977 L 286.074 265.051 C 291.337 254.746 290.555 243.488 290.279 240.872 C 294.796 221.15 290.393 193.533 290.204 192.363 C 290.108 191.768 288.122 180.022 281.881 171.238 C 300.276 170.982 311.997 169.099 311.997 157.615 L 312 157.616 Z  M 5.555 157.616 C 5.555 152.227 8.255 148.887 21.697 148.887 C 29.792 148.887 34.348 155.527 35.742 157.94 C 34.884 161.274 34.294 163.948 33.931 165.711 C 9.783 165.563 5.555 163.052 5.555 157.616 L 5.555 157.616 Z  M 71.059 282.99 L 71.059 300.977 C 71.059 303.991 68.601 306.445 65.586 306.445 L 36.946 306.445 C 33.931 306.445 31.477 303.989 31.477 300.977 L 31.477 272.808 C 31.621 272.959 31.801 273.095 31.952 273.246 C 32.492 273.773 33.044 274.288 33.619 274.776 C 33.719 274.865 33.838 274.949 33.942 275.031 C 38.261 278.577 43.6 280.962 49.916 282.15 C 50.089 282.187 50.242 282.226 50.42 282.262 C 51.601 282.472 52.832 282.616 54.084 282.746 C 54.424 282.777 54.732 282.83 55.078 282.86 C 56.691 282.996 58.351 283.069 60.068 283.069 C 61.114 283.069 62.132 283.062 63.114 283.062 C 64.079 283.056 64.991 283.056 65.896 283.042 L 65.91 283.042 C 66.786 283.042 67.622 283.035 68.446 283.019 L 68.598 283.019 C 69.283 283.012 69.953 283.005 70.603 282.994 C 70.749 282.996 70.904 282.996 71.059 282.99 L 71.059 282.99 Z  M 280.524 300.977 C 280.524 303.991 278.068 306.445 275.055 306.445 L 246.413 306.445 C 243.396 306.445 240.947 303.989 240.947 300.977 L 240.947 282.99 C 241.095 282.997 241.255 282.997 241.405 282.997 C 242.06 283.011 242.719 283.017 243.403 283.022 L 243.567 283.022 C 244.388 283.038 245.227 283.045 246.1 283.045 L 246.121 283.045 C 247.019 283.058 247.938 283.058 248.889 283.065 C 249.879 283.065 250.889 283.072 251.942 283.072 C 253.662 283.072 255.32 282.999 256.927 282.862 C 257.272 282.833 257.577 282.78 257.915 282.748 C 259.171 282.618 260.402 282.475 261.588 282.265 C 261.762 282.228 261.914 282.19 262.081 282.153 C 268.406 280.967 273.743 278.58 278.071 275.034 C 278.169 274.952 278.283 274.868 278.385 274.788 C 278.971 274.295 279.523 273.769 280.061 273.235 C 280.212 273.091 280.385 272.955 280.529 272.811 L 280.526 300.977 L 280.524 300.977 Z  M 284.763 240.073 L 284.644 240.577 L 284.713 241.09 C 284.735 241.227 286.227 253.178 280.722 263.264 C 280.143 264.317 279.514 265.323 278.823 266.258 C 278.704 266.415 278.576 266.566 278.455 266.725 C 277.869 267.473 277.24 268.187 276.579 268.864 C 276.321 269.129 276.068 269.398 275.801 269.649 C 275.124 270.283 274.399 270.871 273.646 271.434 C 273.427 271.598 273.218 271.781 272.992 271.945 C 271.995 272.629 270.949 273.263 269.838 273.824 C 269.606 273.938 269.355 274.029 269.115 274.139 C 268.226 274.563 267.3 274.946 266.336 275.29 C 265.898 275.448 265.439 275.578 264.986 275.714 C 264.158 275.972 263.312 276.198 262.432 276.398 C 261.935 276.512 261.428 276.62 260.908 276.718 C 259.974 276.891 259.002 277.028 258.006 277.142 C 257.529 277.197 257.068 277.265 256.578 277.308 C 255.08 277.436 253.541 277.518 251.935 277.518 C 250.652 277.518 249.423 277.511 248.239 277.511 C 248.041 277.504 247.849 277.504 247.651 277.504 C 246.641 277.495 245.66 277.488 244.711 277.482 C 244.575 277.482 244.438 277.482 244.296 277.475 C 243.257 277.468 242.246 277.454 241.275 277.438 L 241.236 277.438 C 240.19 277.418 239.191 277.406 238.219 277.384 L 237.405 277.363 C 228.69 277.165 222.975 276.782 216.679 276.362 C 205.203 275.598 192.187 274.732 155.998 274.732 C 119.8 274.732 106.788 275.598 95.316 276.362 C 89.02 276.782 83.308 277.162 74.592 277.363 L 73.776 277.384 C 72.804 277.406 71.799 277.42 70.748 277.438 L 70.723 277.438 C 69.751 277.454 68.739 277.468 67.69 277.475 C 67.553 277.482 67.421 277.482 67.288 277.482 C 66.337 277.488 65.35 277.495 64.335 277.504 C 64.139 277.504 63.952 277.504 63.756 277.511 C 62.57 277.511 61.344 277.518 60.06 277.518 C 58.452 277.518 56.911 277.436 55.417 277.308 C 54.929 277.265 54.466 277.197 53.99 277.142 C 52.995 277.028 52.024 276.891 51.08 276.718 C 50.569 276.622 50.061 276.512 49.564 276.398 C 48.676 276.2 47.828 275.967 47 275.714 C 46.547 275.578 46.102 275.445 45.66 275.29 C 44.688 274.95 43.765 274.558 42.869 274.134 C 42.636 274.027 42.392 273.936 42.162 273.826 C 41.051 273.263 39.998 272.629 39.008 271.94 C 38.78 271.79 38.579 271.603 38.365 271.45 C 37.606 270.882 36.878 270.289 36.194 269.646 C 35.932 269.4 35.681 269.14 35.43 268.876 C 34.767 268.192 34.124 267.48 33.535 266.714 C 33.421 266.563 33.3 266.42 33.191 266.269 C 32.491 265.328 31.857 264.322 31.275 263.255 C 25.771 253.176 27.264 241.231 27.287 241.095 L 27.356 240.575 L 27.237 240.078 C 22.797 221.411 27.228 193.536 27.28 193.258 C 27.303 193.099 29.905 177.704 38.052 170.601 L 38.798 169.954 L 38.969 168.982 C 39.035 168.599 45.899 130.322 66.028 106.176 C 85.695 82.568 104.508 81.366 156.008 81.366 C 207.507 81.366 226.311 82.565 245.989 106.176 C 266.083 130.294 272.979 168.603 273.043 168.988 L 273.214 169.953 L 273.96 170.6 C 282.103 177.703 284.704 193.098 284.732 193.257 C 284.773 193.535 289.215 221.389 284.766 240.077 L 284.763 240.073 Z  M 278.061 165.708 C 277.701 163.945 277.113 161.275 276.257 157.943 C 277.651 155.554 282.257 148.883 290.298 148.883 C 303.74 148.883 306.444 152.222 306.444 157.612 C 306.444 163.051 302.219 165.561 278.061 165.707 L 278.061 165.708 Z " fill="rgb(0,0,0)"/><path d=" M 247.769 189.483 C 233.861 194.521 225.219 204.682 228.092 212.615 C 229.896 217.604 235.565 220.461 243.644 220.461 L 243.651 220.461 C 248.191 220.461 253.16 219.533 258.028 217.77 C 271.938 212.726 280.578 202.563 277.707 194.63 C 275.899 189.64 270.23 186.783 262.155 186.783 C 257.613 186.785 252.644 187.714 247.769 189.483 L 247.769 189.483 Z  M 272.483 196.525 C 274.015 200.748 267.678 208.362 256.138 212.544 C 251.871 214.097 247.552 214.917 243.653 214.917 L 243.646 214.917 C 238.21 214.917 234.253 213.312 233.319 210.726 C 231.789 206.503 238.128 198.892 249.664 194.711 C 253.933 193.158 258.252 192.344 262.158 192.344 C 267.592 192.34 271.548 193.941 272.483 196.524 L 272.483 196.525 Z " fill="rgb(209,25,25)"/><path d=" M 188.844 220.983 C 184.466 220.983 179.663 221.026 174.542 221.072 C 162.894 221.172 149.11 221.172 137.455 221.072 C 132.338 221.022 127.534 220.983 123.16 220.983 C 101.981 220.983 94.934 221.87 94.934 227.105 C 94.934 235.729 128.512 243.118 156.001 243.118 C 183.483 243.118 217.062 235.728 217.062 227.105 C 217.065 221.872 210.017 220.983 188.841 220.983 L 188.844 220.983 Z  M 156.003 237.561 C 127.633 237.561 107.118 231.048 101.668 227.616 C 104.867 226.9 112.07 226.538 123.157 226.538 C 127.517 226.538 132.308 226.581 137.407 226.627 C 149.084 226.727 162.905 226.727 174.589 226.627 C 179.693 226.576 184.475 226.538 188.839 226.538 C 199.93 226.538 207.132 226.9 210.324 227.616 C 204.886 231.048 184.365 237.561 156.002 237.561 L 156.003 237.561 Z " fill="rgb(0,0,0)"/><path d=" M 155.99 184.977 L 156.143 184.977 C 164.917 184.977 242.405 184.434 262.51 165.715 L 263.693 164.609 L 263.315 163.033 C 263.05 161.909 256.558 135.222 242.543 114.668 C 228.043 93.399 216.171 91.7 156.001 91.7 C 95.83 91.7 83.959 93.399 69.453 114.668 C 55.445 135.222 48.953 161.909 48.681 163.033 L 48.305 164.609 L 49.488 165.715 C 69.603 184.434 147.087 184.977 155.996 184.977 L 155.99 184.977 Z  M 74.053 117.798 C 87.193 98.522 96.597 97.254 156.008 97.254 C 215.411 97.254 224.821 98.522 237.956 117.798 C 249.462 134.676 255.863 156.604 257.498 162.695 C 240.677 175.89 184.295 179.416 156.146 179.416 L 156.146 182.196 L 155.859 179.416 C 127.715 179.416 71.336 175.889 54.512 162.695 C 56.142 156.608 62.529 134.694 74.055 117.798 L 74.053 117.798 Z " fill="rgb(0,0,0)"/></g></g></svg>