<?xml version="1.0" encoding="UTF-8" standalone="no"?><!-- Generator: Gravit.io --><svg xmlns="http://www.w3.org/2000/svg" xmlns:xlink="http://www.w3.org/1999/xlink" style="isolation:isolate" viewBox="0 0 312 312" width="312pt" height="312pt"><defs><clipPath id="_clipPath_UiRpEzaLUlsQffjhMYblnhaeCoEMae2L"><rect width="312" height="312"/></clipPath></defs><g clip-path="url(#_clipPath_UiRpEzaLUlsQffjhMYblnhaeCoEMae2L)"><g><path d=" M 279.214 69.315 C 279.214 49.483 263.077 33.347 243.246 33.347 C 223.415 33.347 207.278 49.484 207.278 69.315 C 207.278 89.149 223.415 105.289 243.246 105.289 C 263.075 105.287 279.214 89.144 279.214 69.315 Z  M 243.244 97.482 C 227.71 97.482 215.074 84.845 215.074 69.31 C 215.074 53.779 227.711 41.14 243.244 41.14 C 258.776 41.14 271.413 53.777 271.413 69.31 C 271.413 84.848 258.779 97.482 243.244 97.482 Z " fill="rgb(0,0,0)"/><path d=" M 247.145 17.797 L 247.145 4.108 C 247.145 1.951 245.398 0.208 243.244 0.208 C 241.092 0.208 239.343 1.951 239.343 4.108 L 239.343 17.797 C 239.343 19.955 241.089 21.698 243.244 21.698 C 245.398 21.695 247.145 19.949 247.145 17.797 Z " fill="rgb(0,0,0)"/><path d=" M 222.297 26.149 C 222.828 26.149 223.366 26.042 223.88 25.808 C 225.847 24.93 226.731 22.631 225.858 20.664 L 220.292 8.162 C 219.413 6.189 217.117 5.299 215.145 6.184 C 213.178 7.063 212.294 9.362 213.167 11.328 L 218.733 23.831 C 219.375 25.289 220.803 26.149 222.297 26.149 L 222.297 26.149 Z " fill="rgb(0,0,0)"/><path d=" M 204.956 38.743 C 206.02 38.743 207.087 38.31 207.859 37.451 C 209.3 35.851 209.17 33.386 207.571 31.945 L 197.4 22.783 C 195.8 21.344 193.335 21.472 191.888 23.072 C 190.447 24.671 190.577 27.135 192.176 28.577 L 202.347 37.739 C 203.099 38.411 204.029 38.743 204.956 38.743 L 204.956 38.743 Z " fill="rgb(0,0,0)"/><path d=" M 177.525 47.963 C 176.861 50.012 177.982 52.21 180.028 52.876 L 193.047 57.104 C 193.449 57.232 193.855 57.295 194.252 57.295 C 195.898 57.295 197.426 56.244 197.96 54.599 C 198.623 52.55 197.503 50.352 195.457 49.686 L 182.44 45.458 C 180.375 44.789 178.188 45.915 177.525 47.963 L 177.525 47.963 Z " fill="rgb(0,0,0)"/><path d=" M 174.523 76.538 C 174.733 78.542 176.427 80.033 178.4 80.033 C 178.536 80.033 178.672 80.025 178.811 80.008 L 192.421 78.577 C 194.561 78.351 196.117 76.434 195.891 74.29 C 195.666 72.15 193.742 70.583 191.604 70.819 L 177.994 72.25 C 175.848 72.475 174.295 74.393 174.524 76.537 L 174.523 76.538 Z " fill="rgb(0,0,0)"/><path d=" M 186.787 105.814 C 187.445 105.814 188.12 105.645 188.732 105.292 L 200.585 98.448 C 202.454 97.37 203.088 94.985 202.013 93.121 C 200.936 91.252 198.547 90.613 196.687 91.693 L 184.834 98.537 C 182.965 99.615 182.331 102 183.406 103.863 C 184.127 105.115 185.438 105.814 186.787 105.814 L 186.787 105.814 Z " fill="rgb(0,0,0)"/><path d=" M 204.914 125.962 C 206.123 125.962 207.308 125.404 208.072 124.353 L 216.12 113.282 C 217.387 111.539 217.001 109.101 215.258 107.839 C 213.511 106.577 211.082 106.957 209.809 108.701 L 201.761 119.772 C 200.494 121.516 200.88 123.954 202.624 125.216 C 203.317 125.716 204.123 125.962 204.915 125.962 L 204.914 125.962 Z " fill="rgb(0,0,0)"/><path d=" M 228.718 118.893 L 225.875 132.282 C 225.427 134.388 226.773 136.459 228.879 136.912 C 229.15 136.973 229.425 136.994 229.694 136.994 C 231.496 136.994 233.114 135.738 233.506 133.906 L 236.348 120.517 C 236.798 118.412 235.451 116.341 233.345 115.887 C 231.237 115.457 229.167 116.79 228.718 118.893 L 228.718 118.893 Z " fill="rgb(0,0,0)"/><path d=" M 253.148 115.891 C 251.042 116.34 249.696 118.41 250.145 120.522 L 252.988 133.911 C 253.377 135.745 254.995 136.999 256.798 136.999 C 257.068 136.999 257.34 136.972 257.615 136.917 C 259.72 136.468 261.067 134.398 260.618 132.287 L 257.776 118.897 C 257.326 116.789 255.259 115.448 253.148 115.891 L 253.148 115.891 Z " fill="rgb(0,0,0)"/><path d=" M 278.421 124.352 C 279.185 125.406 280.371 125.96 281.579 125.96 C 282.374 125.96 283.173 125.718 283.87 125.215 C 285.613 123.953 286 121.515 284.732 119.772 L 276.685 108.7 C 275.423 106.962 272.985 106.57 271.236 107.837 C 269.493 109.1 269.106 111.537 270.374 113.281 L 278.421 124.352 Z " fill="rgb(0,0,0)"/><path d=" M 297.767 105.292 C 298.379 105.645 299.053 105.814 299.712 105.814 C 301.061 105.814 302.373 105.115 303.093 103.863 C 304.17 101.995 303.531 99.611 301.665 98.537 L 289.812 91.693 C 287.943 90.615 285.56 91.252 284.486 93.121 C 283.409 94.99 284.048 97.373 285.914 98.448 L 297.767 105.292 Z " fill="rgb(0,0,0)"/><path d=" M 308.101 80.033 C 310.071 80.033 311.763 78.542 311.978 76.538 C 312.204 74.396 310.648 72.478 308.507 72.25 L 294.897 70.819 C 292.709 70.583 290.839 72.15 290.61 74.291 C 290.384 76.431 291.94 78.349 294.081 78.578 L 307.691 80.008 C 307.827 80.025 307.965 80.033 308.101 80.033 L 308.101 80.033 Z " fill="rgb(0,0,0)"/><path d=" M 288.532 54.593 C 289.066 56.242 290.595 57.289 292.24 57.289 C 292.638 57.289 293.043 57.227 293.445 57.098 L 306.462 52.871 C 308.511 52.205 309.628 50.009 308.964 47.959 C 308.301 45.915 306.116 44.786 304.052 45.45 L 291.035 49.678 C 288.995 50.347 287.872 52.545 288.532 54.593 L 288.532 54.593 Z " fill="rgb(0,0,0)"/><path d=" M 289.089 22.783 L 278.918 31.945 C 277.319 33.387 277.191 35.852 278.63 37.452 C 279.403 38.309 280.464 38.744 281.533 38.744 C 282.46 38.744 283.396 38.412 284.141 37.742 L 294.312 28.58 C 295.912 27.138 296.04 24.674 294.601 23.075 C 293.159 21.469 290.697 21.344 289.089 22.783 L 289.089 22.783 Z " fill="rgb(0,0,0)"/><path d=" M 264.2 26.149 C 265.694 26.149 267.116 25.286 267.764 23.831 L 273.33 11.328 C 274.208 9.361 273.321 7.057 271.352 6.184 C 269.379 5.294 267.078 6.187 266.205 8.162 L 260.639 20.664 C 259.761 22.631 260.647 24.935 262.617 25.808 C 263.131 26.045 263.67 26.149 264.2 26.149 L 264.2 26.149 Z " fill="rgb(0,0,0)"/><path d=" M 287.633 290.795 L 287.633 271.611 L 293.531 271.611 C 295.683 271.611 297.432 269.867 297.432 267.71 L 297.432 247.318 C 297.432 245.161 295.686 243.417 293.531 243.417 L 280.479 243.417 L 280.479 179.796 C 280.479 177.64 278.732 175.896 276.578 175.896 C 274.427 175.896 272.677 177.64 272.677 179.796 L 272.677 183.347 L 123.471 183.347 L 123.471 179.796 C 123.471 177.64 121.725 175.896 119.57 175.896 C 117.419 175.896 115.669 177.64 115.669 179.796 L 115.669 243.423 L 105.748 243.423 C 103.596 243.423 101.847 245.166 101.847 247.324 L 101.847 267.715 C 101.847 269.873 103.593 271.616 105.748 271.616 L 110.751 271.616 L 110.751 281.807 C 97.377 282.427 85.035 283.298 73.865 284.305 L 73.868 150.357 C 110.62 148.325 139.915 118.102 139.915 81.135 C 139.908 42.851 108.526 11.711 69.955 11.711 C 31.383 11.711 0 42.851 0 81.132 C 0 118.108 29.304 148.336 66.06 150.36 L 66.06 285.038 C 65.62 307.573 66.401 279.711 66.063 292.862 L 66.06 308.099 C 66.06 310.256 67.807 312 69.962 312 C 72.113 312 73.863 310.256 73.863 308.099 L 73.869 284.268 C 85.011 283.259 97.366 282.43 110.751 281.807 L 110.745 308.099 C 110.745 310.256 112.492 312 114.646 312 C 116.798 312 118.548 310.256 118.548 308.099 L 118.548 271.616 C 165.924 271.886 215.139 271.495 279.828 271.613 L 279.826 308.099 C 279.826 310.256 281.573 312 283.727 312 C 285.879 312 287.628 310.256 287.628 308.099 Q 287.829 301.454 287.633 290.795 Z  M 7.803 81.133 C 7.803 47.153 35.683 19.512 69.96 19.512 C 104.237 19.512 132.118 47.153 132.118 81.133 C 132.118 113.808 106.32 140.543 73.869 142.556 L 73.869 131.144 L 98.235 106.778 C 99.761 105.252 99.761 102.787 98.235 101.264 C 96.709 99.738 94.244 99.738 92.721 101.264 L 73.869 120.116 L 73.869 90.039 C 73.869 87.882 72.122 86.138 69.968 86.138 C 67.816 86.138 66.067 87.882 66.067 90.039 L 66.067 120.116 L 47.215 101.264 C 45.689 99.738 43.225 99.738 41.701 101.264 C 40.175 102.79 40.175 105.255 41.701 106.778 L 66.073 131.144 L 66.073 142.556 C 33.608 140.554 7.803 113.81 7.803 81.133 L 7.803 81.133 Z  M 272.682 191.146 L 272.682 243.412 L 123.476 243.412 C 123.488 233.438 123.495 186.803 123.476 191.146 L 272.682 191.146 Z  M 272.682 243.422 L 123.476 243.422 L 272.682 243.422 Z  M 109.651 251.221 L 289.639 251.221 L 289.639 263.814 L 109.651 263.814 L 109.651 251.221 Z  M 118.555 271.616 L 279.836 271.616 L 118.555 271.616 Z " fill="rgb(0,0,0)"/><path d=" M 155.692 134.22 C 155.088 134.161 140.795 133.5 133.685 142.172 C 126.57 150.845 130.042 164.727 130.194 165.314 C 130.618 166.96 132.057 168.14 133.755 168.23 C 133.845 168.239 134.256 168.258 134.906 168.258 C 138.54 168.258 149.734 167.634 155.763 160.279 C 162.876 151.607 159.405 137.724 159.253 137.137 C 158.826 135.494 157.387 134.31 155.691 134.221 L 155.692 134.22 Z  M 149.732 155.336 C 146.843 158.859 141.132 160.067 137.221 160.374 C 136.761 156.479 136.827 150.643 139.719 147.118 C 142.607 143.595 148.318 142.387 152.226 142.08 C 152.689 145.975 152.624 151.81 149.732 155.336 L 149.732 155.336 Z " fill="rgb(209,25,25)"/><path d=" M 45.249 203.771 C 49.865 203.771 53.47 202.87 53.764 202.797 C 55.41 202.373 56.59 200.928 56.685 199.236 C 56.715 198.632 57.406 184.34 48.734 177.226 C 40.061 170.118 26.185 173.587 25.594 173.731 C 23.948 174.156 22.768 175.6 22.672 177.292 C 22.643 177.896 21.951 192.188 30.624 199.302 C 34.968 202.868 40.616 203.771 45.249 203.771 L 45.249 203.771 Z  M 43.782 183.257 C 47.305 186.144 48.51 191.839 48.82 195.749 C 45.243 196.182 39.28 196.315 35.57 193.268 C 32.052 190.382 30.842 184.686 30.532 180.776 C 34.098 180.338 40.069 180.213 43.782 183.257 L 43.782 183.257 Z " fill="rgb(209,25,25)"/></g></g></svg>