<?xml version="1.0" encoding="UTF-8" standalone="no"?><!-- Generator: Gravit.io --><svg xmlns="http://www.w3.org/2000/svg" xmlns:xlink="http://www.w3.org/1999/xlink" style="isolation:isolate" viewBox="0 0 312 312" width="312pt" height="312pt"><defs><clipPath id="_clipPath_hXQW7NtDyEn9dTlR1yyZFfoC0rMys5E2"><rect width="312" height="312"/></clipPath></defs><g clip-path="url(#_clipPath_hXQW7NtDyEn9dTlR1yyZFfoC0rMys5E2)"><g><path d=" M 273.527 136.788 L 67.462 136.788 C 54.269 136.788 43.513 147.544 43.513 160.737 L 43.513 235.155 C 28.152 232.721 21.157 226.214 21.157 214.306 L 21.157 87.872 C 21.157 70.783 35.057 56.883 52.146 56.883 L 178.972 56.883 C 180.477 71.27 191.634 82.516 205.133 82.516 L 228.198 82.516 C 228.507 84.021 229.792 85.128 231.386 85.128 L 246.082 85.128 C 247.897 85.128 249.402 83.623 249.402 81.808 L 249.402 71.715 L 271.491 71.715 C 273.306 71.715 274.811 70.21 274.811 68.396 C 274.811 66.582 273.306 65.076 271.491 65.076 L 249.402 65.074 L 249.402 39.575 L 271.491 39.575 C 273.306 39.575 274.811 38.07 274.811 36.256 C 274.811 34.442 273.306 32.937 271.491 32.937 L 249.402 32.934 L 249.402 25.319 C 249.402 23.505 247.897 22 246.082 22 L 231.386 22 C 229.792 22 228.509 23.152 228.198 24.657 L 205.133 24.657 C 198.006 24.657 191.367 27.712 186.364 33.245 C 182.203 37.939 179.637 43.87 178.972 50.245 L 52.146 50.242 C 31.429 50.242 14.519 67.108 14.519 87.869 L 14.519 214.298 C 14.519 236.255 33.819 240.637 43.515 241.922 L 43.515 271.361 C 43.515 284.554 54.226 295.31 67.464 295.31 L 88.136 295.31 L 90.924 309.343 C 91.233 310.893 92.607 312 94.199 312 L 111.641 312 C 113.235 312 114.607 310.848 114.916 309.299 L 117.484 295.31 L 223.508 295.31 L 226.34 309.343 C 226.649 310.893 228.023 312 229.615 312 L 247.057 312 C 248.651 312 250.022 310.848 250.332 309.299 L 252.899 295.309 L 273.53 295.309 C 285.88 295.309 296.063 285.925 297.345 273.928 C 297.39 273.707 297.479 273.486 297.479 273.22 C 297.479 273.086 297.434 272.955 297.39 272.866 C 297.434 272.379 297.479 271.892 297.479 271.405 L 297.481 160.691 C 297.481 147.499 286.725 136.786 273.532 136.786 L 273.527 136.788 L 273.527 136.788 Z  M 234.704 28.642 L 242.761 28.642 L 242.761 78.488 L 234.704 78.488 L 234.704 28.642 L 234.704 28.642 Z  M 191.321 37.673 C 195.041 33.555 199.954 31.299 205.132 31.299 L 228.063 31.299 L 228.063 75.875 L 205.132 75.875 C 194.242 75.875 185.434 65.87 185.434 53.565 C 185.434 47.588 187.515 41.922 191.321 37.673 L 191.321 37.673 L 191.321 37.673 Z  M 108.849 305.316 L 96.897 305.316 L 94.904 295.266 L 110.708 295.266 L 108.849 305.316 L 108.849 305.316 Z  M 244.264 305.316 L 232.312 305.316 L 230.276 295.266 L 246.123 295.266 L 244.264 305.316 L 244.264 305.316 Z  M 273.525 288.627 L 67.459 288.627 C 57.941 288.627 50.151 280.882 50.151 271.32 L 50.151 239.313 L 50.151 239.269 L 50.151 160.696 C 50.151 151.178 57.897 143.387 67.459 143.387 L 273.525 143.387 C 283.043 143.387 290.833 151.133 290.833 160.696 L 290.833 163.086 L 290.833 169.725 L 290.833 189.734 L 290.833 196.373 L 290.833 216.471 L 290.833 223.11 L 290.833 243.119 L 290.833 249.758 L 290.833 269.856 L 289.947 276.495 C 287.734 283.494 281.271 288.63 273.525 288.63 L 273.525 288.627 L 273.525 288.627 Z " fill="rgb(0,0,0)"/><g><path d=" M 73.94 189.732 C 72.126 189.732 70.62 191.237 70.62 193.051 L 70.62 257.947 C 70.62 259.761 72.126 261.266 73.94 261.266 C 75.754 261.266 77.259 259.761 77.259 257.947 L 77.259 193.051 C 77.259 191.235 75.799 189.729 73.94 189.729 L 73.94 189.732 L 73.94 189.732 Z " fill="rgb(0,0,0)"/><path d=" M 92.307 189.732 C 90.493 189.732 88.988 191.237 88.988 193.051 L 88.988 257.947 C 88.988 259.761 90.493 261.266 92.307 261.266 C 94.121 261.266 95.626 259.761 95.626 257.947 L 95.626 193.051 C 95.626 191.235 94.165 189.729 92.307 189.729 L 92.307 189.732 L 92.307 189.732 Z " fill="rgb(0,0,0)"/></g><path d=" M 195.033 215.98 L 178.972 215.98 L 184.92 170.183 C 185.072 168.856 184.313 167.606 183.101 167.152 C 181.851 166.697 180.449 167.152 179.73 168.249 L 145.069 221.014 C 144.5 221.885 144.462 223.021 144.955 223.931 C 145.448 224.84 146.395 225.409 147.455 225.409 L 161.129 225.409 L 151.659 265.941 C 151.357 267.228 151.962 268.516 153.137 269.124 C 153.554 269.313 153.971 269.426 154.425 269.426 C 155.221 269.426 156.016 269.085 156.584 268.441 L 197.155 220.674 C 197.874 219.84 198.026 218.629 197.571 217.643 C 197.117 216.66 196.169 215.979 195.033 215.979 L 195.033 215.98 L 195.033 215.98 Z  M 159.919 255.791 L 167.533 223.213 C 167.723 222.38 167.533 221.47 167.003 220.789 C 166.472 220.108 165.638 219.727 164.767 219.727 L 152.797 219.727 L 177.759 181.696 L 172.986 218.439 C 172.872 219.234 173.138 220.068 173.667 220.675 C 174.198 221.281 174.993 221.622 175.788 221.622 L 188.932 221.622 L 159.919 255.791 L 159.919 255.791 Z " fill="rgb(209,25,25)"/></g></g></svg>