<?xml version="1.0" encoding="UTF-8" standalone="no"?><!-- Generator: Gravit.io --><svg xmlns="http://www.w3.org/2000/svg" xmlns:xlink="http://www.w3.org/1999/xlink" style="isolation:isolate" viewBox="0 0 300 300" width="300pt" height="300pt"><defs><clipPath id="_clipPath_VPFayobb0anMx73JM13bYDHqKhREnXjd"><rect width="300" height="300"/></clipPath></defs><g clip-path="url(#_clipPath_VPFayobb0anMx73JM13bYDHqKhREnXjd)"><g><path d=" M 297.715 50.052 L 2.286 50.052 C 1.023 50.052 0 51.077 0 52.338 L 0 130.634 C 0 140.169 7.179 148.046 16.413 149.178 L 16.413 297.714 C 16.413 298.978 17.438 300 18.698 300 L 281.3 300 C 282.562 300 283.585 298.976 283.585 297.714 L 283.585 149.183 C 292.818 148.05 300 140.172 300 130.638 L 300 52.341 C 300 51.076 298.975 50.051 297.714 50.051 L 297.715 50.052 Z  M 4.572 54.624 L 295.429 54.624 L 295.429 63.235 L 4.572 63.235 L 4.572 54.624 Z  M 37.395 67.809 L 65.649 67.809 L 65.649 130.63 C 65.649 138.42 59.313 144.759 51.52 144.759 C 43.731 144.759 37.395 138.423 37.395 130.63 L 37.395 67.809 Z  M 70.224 67.809 L 98.478 67.809 L 98.478 130.63 C 98.478 138.42 92.137 144.759 84.348 144.759 C 76.56 144.759 70.224 138.423 70.224 130.63 L 70.224 67.809 Z  M 103.049 67.809 L 131.303 67.809 L 131.303 130.63 C 131.303 138.42 124.967 144.759 117.179 144.759 C 109.388 144.759 103.049 138.423 103.049 130.63 L 103.049 67.809 Z  M 135.873 67.809 L 164.129 67.809 L 164.129 130.63 C 164.129 138.42 157.789 144.759 149.998 144.759 C 142.209 144.759 135.875 138.423 135.875 130.63 L 135.877 67.809 L 135.873 67.809 Z  M 168.703 67.809 L 196.959 67.809 L 196.959 130.63 C 196.959 138.42 190.622 144.759 182.83 144.759 C 175.039 144.759 168.7 138.423 168.7 130.63 L 168.703 67.809 Z  M 201.531 67.809 L 229.782 67.809 L 229.782 130.63 C 229.782 138.42 223.446 144.759 215.653 144.759 C 207.864 144.759 201.531 138.423 201.531 130.63 L 201.531 67.809 Z  M 234.354 67.809 L 262.61 67.809 L 262.61 130.63 C 262.61 138.42 256.274 144.759 248.481 144.759 C 240.691 144.759 234.352 138.423 234.352 130.63 L 234.354 67.809 Z  M 4.571 130.635 L 4.571 67.814 L 32.825 67.814 L 32.825 130.635 C 32.825 138.424 26.488 144.76 18.696 144.76 C 10.905 144.758 4.571 138.424 4.571 130.635 L 4.571 130.635 Z  M 59.597 295.431 L 59.597 199.912 L 122.963 199.912 L 122.963 295.431 L 59.597 295.431 Z  M 127.535 295.431 L 127.535 197.626 C 127.535 196.363 126.51 195.341 125.249 195.341 L 57.311 195.341 C 56.049 195.341 55.026 196.366 55.026 197.626 L 55.026 295.431 L 20.986 295.431 L 20.986 149.181 C 27.082 148.431 32.283 144.754 35.111 139.587 C 38.288 145.392 44.452 149.338 51.524 149.338 C 58.596 149.338 64.76 145.394 67.938 139.587 C 71.115 145.392 77.279 149.338 84.351 149.338 C 91.423 149.338 97.589 145.39 100.766 139.587 C 103.943 145.392 110.109 149.338 117.181 149.338 C 124.25 149.338 130.417 145.394 133.593 139.587 C 136.77 145.392 142.934 149.338 150.002 149.338 C 157.074 149.338 163.24 145.39 166.419 139.587 C 169.596 145.392 175.76 149.338 182.834 149.338 C 189.904 149.338 196.07 145.394 199.249 139.587 C 202.426 145.392 208.585 149.338 215.658 149.338 C 222.73 149.338 228.896 145.394 232.072 139.587 C 235.249 145.394 241.413 149.338 248.487 149.338 C 255.557 149.338 261.723 145.394 264.902 139.587 C 267.73 144.754 272.931 148.432 279.025 149.183 L 279.025 295.434 L 127.538 295.434 L 127.535 295.431 Z  M 281.303 144.761 C 273.514 144.761 267.18 138.424 267.18 130.632 L 267.18 67.81 L 295.432 67.81 L 295.432 130.632 C 295.432 138.422 289.093 144.761 281.303 144.761 Z " fill="rgb(0,0,0)"/><path d=" M 245.843 195.342 L 157.58 195.342 C 156.4 195.342 155.444 196.3 155.444 197.478 L 155.444 234.819 C 155.444 236 156.402 236.956 157.58 236.956 L 245.843 236.956 C 247.024 236.956 247.98 235.998 247.98 234.819 L 247.98 197.478 C 247.98 196.297 247.022 195.342 245.843 195.342 L 245.843 195.342 Z  M 159.717 199.614 L 199.577 199.614 L 199.577 232.683 L 159.717 232.683 L 159.717 199.614 Z  M 243.707 232.683 L 203.849 232.683 L 203.849 199.614 L 243.707 199.614 L 243.707 232.683 Z " fill="rgb(209,25,25)"/></g></g></svg>