<?xml version="1.0" encoding="UTF-8" standalone="no"?><!-- Generator: Gravit.io --><svg xmlns="http://www.w3.org/2000/svg" xmlns:xlink="http://www.w3.org/1999/xlink" style="isolation:isolate" viewBox="0 0 500 500" width="500pt" height="500pt"><defs><clipPath id="_clipPath_Lh81psRJzwuDbq8MJBrBIfDTKSDLFAEG"><rect width="500" height="500"/></clipPath></defs><g clip-path="url(#_clipPath_Lh81psRJzwuDbq8MJBrBIfDTKSDLFAEG)"><g><path d=" M 494.913 416.19 C 473.447 416.19 462.212 424.283 452.297 431.42 C 442.791 438.265 433.808 444.725 415.636 444.725 C 397.464 444.725 388.488 438.257 378.976 431.42 C 371.921 426.347 364.13 420.836 352.533 418.054 L 352.533 142.94 C 352.533 124.31 337.374 109.151 318.743 109.151 C 300.112 109.151 284.953 124.31 284.953 142.94 L 284.953 197.766 C 284.953 200.58 287.233 202.867 290.054 202.867 C 292.876 202.867 295.156 200.583 295.156 197.766 L 295.156 142.94 C 295.156 129.934 305.739 119.354 318.742 119.354 C 331.748 119.354 342.328 129.938 342.328 142.94 L 342.328 230.278 L 197.832 230.281 L 197.832 142.944 C 197.832 124.313 182.672 109.154 164.042 109.154 C 145.411 109.154 130.252 124.313 130.252 142.944 L 130.252 197.769 C 130.252 200.583 132.536 202.871 135.353 202.871 C 138.167 202.871 140.455 200.587 140.455 197.769 L 140.455 142.944 C 140.455 129.938 151.038 119.358 164.041 119.358 C 177.047 119.358 187.627 129.942 187.627 142.944 L 187.627 416.892 C 184.582 416.483 181.383 416.195 177.818 416.195 C 156.362 416.195 145.131 424.288 135.217 431.425 C 125.715 438.269 116.747 444.73 98.578 444.73 C 80.407 444.73 71.434 438.262 61.929 431.425 C 52.014 424.288 40.779 416.195 19.317 416.195 C 16.503 416.195 14.215 418.475 14.215 421.296 C 14.215 424.117 16.499 426.398 19.317 426.398 C 37.488 426.398 46.465 432.865 55.966 439.703 C 65.881 446.839 77.116 454.933 98.571 454.933 C 120.026 454.933 131.258 446.839 141.172 439.703 C 150.675 432.858 159.643 426.398 177.811 426.398 C 195.983 426.398 204.959 432.865 214.464 439.703 C 224.38 446.839 235.614 454.933 257.077 454.933 C 278.539 454.933 289.777 446.839 299.689 439.703 C 309.195 432.858 318.17 426.398 336.349 426.398 C 354.525 426.398 363.5 432.865 373.01 439.703 C 382.918 446.839 394.16 454.933 415.622 454.933 C 437.088 454.933 448.323 446.839 458.238 439.703 C 467.744 432.858 476.727 426.398 494.898 426.398 C 497.72 426.398 500 424.117 500 421.296 C 500 418.468 497.723 416.188 494.909 416.188 L 494.913 416.19 Z  M 197.832 277.458 L 342.329 277.458 L 342.329 318.26 L 197.832 318.256 L 197.832 277.458 Z  M 197.832 328.459 L 342.329 328.459 L 342.329 355.233 L 197.832 355.233 L 197.832 328.459 Z  M 342.329 240.481 L 342.329 267.254 L 197.832 267.254 L 197.832 240.481 L 342.329 240.481 Z  M 293.737 431.415 C 284.231 438.26 275.255 444.72 257.076 444.72 C 238.904 444.72 229.928 438.253 220.427 431.415 C 214.169 426.912 207.37 422.038 197.822 419.042 L 197.822 365.43 L 342.319 365.43 L 342.322 416.467 C 340.401 416.317 338.455 416.182 336.346 416.182 C 314.887 416.186 303.649 424.279 293.734 431.416 L 293.737 431.415 Z " fill="rgb(0,0,0)"/><path d=" M 480.687 461.262 C 459.221 461.262 447.986 469.355 438.071 476.492 C 428.565 483.337 419.582 489.797 401.411 489.797 C 383.239 489.797 374.263 483.329 364.75 476.492 C 354.835 469.356 343.6 461.262 322.134 461.262 C 300.672 461.262 289.434 469.355 279.522 476.492 C 270.016 483.337 261.041 489.797 242.869 489.797 C 224.697 489.797 215.718 483.329 206.216 476.492 C 196.3 469.356 185.066 461.262 163.603 461.262 C 142.147 461.262 130.916 469.355 121.002 476.492 C 111.5 483.337 102.532 489.797 84.363 489.797 C 66.192 489.797 57.219 483.329 47.714 476.492 C 37.799 469.356 26.564 461.262 5.102 461.262 C 2.288 461.262 0 463.542 0 466.363 C 0 469.185 2.284 471.465 5.102 471.465 C 23.273 471.465 32.25 477.933 41.751 484.77 C 51.666 491.906 62.901 500 84.356 500 C 105.812 500 117.043 491.907 126.957 484.77 C 136.46 477.925 145.428 471.465 163.596 471.465 C 181.768 471.465 190.744 477.933 200.249 484.77 C 210.164 491.906 221.399 500 242.865 500 C 264.327 500 275.562 491.907 285.47 484.77 C 294.976 477.925 303.952 471.465 322.131 471.465 C 340.306 471.465 349.281 477.933 358.791 484.77 C 368.699 491.906 379.941 500 401.403 500 C 422.869 500 434.104 491.907 444.019 484.77 C 453.525 477.925 462.508 471.465 480.68 471.465 C 483.501 471.465 485.781 469.185 485.781 466.363 C 485.781 463.542 483.508 461.262 480.687 461.262 L 480.687 461.262 Z " fill="rgb(209,25,25)"/></g></g></svg>